<svg width="16" height="13" viewBox="0 0 16 13" fill="none" xmlns="http://www.w3.org/2000/svg">
<path fill-rule="evenodd" clip-rule="evenodd" d="M9.08326 0.737059C9.41106 0.409262 9.94252 0.409262 10.2703 0.737059L15.2698 5.73652C15.5665 6.03328 15.5946 6.49698 15.3541 6.82536C15.3213 6.87742 15.2822 6.92667 15.2368 6.97202L10.2374 11.9715C9.90957 12.2993 9.37811 12.2993 9.05031 11.9715C8.72252 11.6437 8.72252 11.1122 9.05031 10.7844L12.5645 7.27027H1.355C0.891427 7.27027 0.515625 6.89447 0.515625 6.43089C0.515625 5.96732 0.891427 5.59152 1.355 5.59152H12.7507L9.08326 1.92412C8.75547 1.59632 8.75547 1.06486 9.08326 0.737059Z" fill="#E6650A"/>
</svg>
