<svg width="16" height="13" viewBox="0 0 16 13" fill="none" xmlns="http://www.w3.org/2000/svg">
<path fill-rule="evenodd" clip-rule="evenodd" d="M9.44264 1.01733C9.77043 0.689535 10.3019 0.689535 10.6297 1.01733L15.6292 6.01679C15.9259 6.31356 15.954 6.77726 15.7134 7.10563C15.6806 7.1577 15.6416 7.20694 15.5962 7.25229L10.5967 12.2518C10.2689 12.5795 9.73749 12.5795 9.40969 12.2518C9.08189 11.924 9.08189 11.3925 9.40969 11.0647L12.9238 7.55054H1.71438C1.2508 7.55054 0.875 7.17474 0.875 6.71117C0.875 6.24759 1.2508 5.87179 1.71438 5.87179H13.11L9.44264 2.20439C9.11484 1.87659 9.11484 1.34513 9.44264 1.01733Z" fill="#E6650A"/>
</svg>
