<svg width="26" height="26" viewBox="0 0 26 26" fill="none" xmlns="http://www.w3.org/2000/svg">
<circle cx="13.2327" cy="12.6958" r="12.5" fill="#4DAAEF"/>
<path d="M21.5917 8.39259C21.2033 8.99604 20.6855 9.53483 20.0382 10.009V10.3969C20.0382 12.6598 19.2184 14.718 17.5786 16.5715C15.9605 18.4034 13.8029 19.3193 11.1059 19.3193C9.3799 19.3193 7.7833 18.8452 6.31616 17.8969C6.66137 17.94 6.90949 17.9616 7.06052 17.9616C8.50609 17.9616 9.80062 17.509 10.9441 16.6038C10.2753 16.5823 9.67117 16.3775 9.13178 15.9896C8.59239 15.5801 8.2256 15.0629 8.03142 14.4379C8.29033 14.481 8.48451 14.5025 8.61396 14.5025C8.82972 14.5025 9.1102 14.4594 9.45541 14.3732C8.74342 14.2223 8.1393 13.8667 7.64306 13.3064C7.1684 12.7245 6.93107 12.0564 6.93107 11.3021V11.2698C7.40573 11.5284 7.88039 11.6577 8.35506 11.6577C7.42731 11.0542 6.96343 10.1814 6.96343 9.03914C6.96343 8.50035 7.10367 7.98311 7.38415 7.48742C9.04548 9.53483 11.1922 10.6232 13.8245 10.7525C13.7813 10.6016 13.7597 10.3646 13.7597 10.0413C13.7597 9.15768 14.0618 8.41414 14.6659 7.81069C15.27 7.20724 16.0144 6.90552 16.899 6.90552C17.7836 6.90552 18.5387 7.23957 19.1644 7.90767C19.8117 7.79992 20.4805 7.54129 21.171 7.13181C20.9552 7.88612 20.4913 8.46802 19.7793 8.8775C20.4482 8.81285 21.0523 8.65121 21.5917 8.39259Z" fill="white"/>
</svg>
