<svg width="17" height="18" viewBox="0 0 17 18" fill="none" xmlns="http://www.w3.org/2000/svg">
<g clip-path="url(#clip0)">
<path d="M2.65387 2.89352C0.302814 5.24452 0.297055 9.09586 2.64811 11.4469C4.64003 13.4388 7.71184 13.7424 10.0328 12.3578L14.1806 16.3911C14.7515 16.9451 15.6522 16.9246 16.1972 16.3452C16.7423 15.7658 16.728 14.854 16.1571 14.3L12.0724 10.3412C13.5046 8.01332 13.2137 4.90572 11.2016 2.89352C8.8505 0.54247 5.00487 0.54247 2.65387 2.89352H2.65387ZM4.37827 4.61793C5.79641 3.19979 8.05896 3.19979 9.4771 4.61793C10.8952 6.03607 10.8952 8.29861 9.4771 9.71675C8.05896 11.1349 5.79641 11.1349 4.37827 9.71675C2.96013 8.29861 2.96013 6.03607 4.37827 4.61793Z" fill="#AD0075"/>
</g>
<defs>
<clipPath id="clip0">
<rect width="16.2992" height="16.2992" fill="white" transform="translate(0.701172 0.987305)"/>
</clipPath>
</defs>
</svg>
