<svg width="17" height="17" viewBox="0 0 17 17" fill="none" xmlns="http://www.w3.org/2000/svg">
<path d="M2.65362 2.27243C0.30257 4.62343 0.296811 8.47477 2.64786 10.8258C4.63979 12.8178 7.7116 13.1213 10.0325 11.7367L14.1804 15.77C14.7512 16.324 15.6519 16.3036 16.197 15.7241C16.7421 15.1447 16.7278 14.233 16.1569 13.6789L12.0721 9.72014C13.5043 7.39223 13.2135 4.28462 11.2013 2.27243C8.85026 -0.0786234 5.00462 -0.0786234 2.65362 2.27243H2.65362ZM4.37802 3.99683C5.79617 2.57869 8.05871 2.57869 9.47685 3.99683C10.895 5.41497 10.895 7.67752 9.47685 9.09566C8.05871 10.5138 5.79617 10.5138 4.37802 9.09566C2.95988 7.67752 2.95988 5.41497 4.37802 3.99683Z" fill="#AD0075"/>
</svg>
