<svg width="46" height="46" viewBox="0 0 46 46" fill="none" xmlns="http://www.w3.org/2000/svg">
<circle cx="23.125" cy="22.9717" r="22.25" fill="#AD0075"/>
<path d="M36.8164 15.7109C36.1663 16.7211 35.2995 17.623 34.216 18.4167V19.066C34.216 22.8541 32.8436 26.2993 30.0988 29.4019C27.39 32.4684 23.7784 34.0016 19.2639 34.0016C16.3746 34.0016 13.702 33.208 11.2461 31.6206C11.824 31.6928 12.2393 31.7288 12.4921 31.7288C14.9119 31.7288 17.0789 30.9712 18.993 29.456C17.8734 29.4199 16.8622 29.0772 15.9593 28.4278C15.0564 27.7424 14.4424 26.8766 14.1173 25.8304C14.5507 25.9025 14.8758 25.9386 15.0925 25.9386C15.4536 25.9386 15.9231 25.8664 16.501 25.7221C15.3092 25.4696 14.2979 24.8743 13.4672 23.9363C12.6727 22.9623 12.2754 21.8439 12.2754 20.5812V20.5271C13.07 20.96 13.8645 21.1765 14.6591 21.1765C13.1061 20.1664 12.3296 18.7053 12.3296 16.7932C12.3296 15.8913 12.5643 15.0255 13.0338 14.1957C15.8148 17.623 19.4084 19.4448 23.8145 19.6613C23.7423 19.4088 23.7062 19.0119 23.7062 18.4708C23.7062 16.9917 24.2118 15.747 25.2231 14.7369C26.2343 13.7267 27.4803 13.2217 28.9611 13.2217C30.4419 13.2217 31.7059 13.7809 32.7533 14.8992C33.8368 14.7188 34.9564 14.2859 36.1121 13.6005C35.751 14.8632 34.9745 15.8372 33.7826 16.5227C34.9022 16.4144 35.9135 16.1439 36.8164 15.7109Z" fill="white"/>
</svg>
