<svg width="83" height="92" viewBox="0 0 83 92" fill="none" xmlns="http://www.w3.org/2000/svg">
<path d="M12.2567 6.24611C17.6311 4.50108 32.8731 10.6868 34.8256 12.9122C36.7653 15.1262 24.1025 16.0413 17.2275 17.0602C10.1337 18.1274 3.05835 19.4021 1.12432 17.1696C-0.808287 14.9684 6.88946 8.00251 12.2567 6.24611Z" fill="#D5035E"/>
<path d="M56.2456 2.36663C62.3873 0.573286 78.8571 7.94846 80.8465 10.4608C82.8161 13.0045 68.654 13.6383 60.9236 14.5719C52.9218 15.5297 44.9071 16.7319 42.9361 14.1996C40.9524 11.6872 50.1252 4.14151 56.2498 2.36663" fill="#D5035E"/>
<path d="M13.1972 12.5539C16.8876 10.1268 32.7705 12.6093 35.4477 14.1341C38.1506 15.6461 27.9091 18.7084 22.5874 20.8002C17.115 22.9644 11.7534 25.3376 9.05769 23.7886C6.34493 22.2823 9.52237 15.0052 13.2 12.5539" fill="#D5035E"/>
<path d="M28.0861 1.01946C33.459 1.50119 39.1133 10.8999 38.589 13.1267C38.0831 15.3406 28.1472 11.9188 22.2968 10.4253C16.2716 8.89341 10.056 7.53917 10.5932 5.32519C11.1118 3.08706 22.7004 0.543409 28.0861 1.01946Z" fill="#D5035E"/>
<path d="M53.4891 11.528C58.8819 11.9912 64.5305 21.3971 64.0047 23.6167C63.4804 25.8435 53.5502 22.4145 47.6998 20.9267C41.6916 19.4019 35.4575 18.0292 35.9947 15.8096C36.5034 13.5899 48.1161 11.059 53.4891 11.5322" fill="#D5035E"/>
<path d="M3.58228 74.2683C3.58228 87.67 22.735 91.5736 43.2235 91.5736C63.7105 91.5736 82.8704 87.67 82.8704 74.2683C82.8704 60.8921 63.712 20.934 43.2235 20.934C22.735 20.934 3.58228 60.8935 3.58228 74.2683Z" fill="#D5035E"/>
<path d="M55.52 22.5809C55.5204 23.2474 55.3894 23.9074 55.1345 24.5232C54.8796 25.1391 54.5058 25.6986 54.0345 26.1699C53.5633 26.6412 53.0037 27.015 52.3879 27.2699C51.772 27.5248 51.112 27.6558 50.4455 27.6554H36.0007C34.6548 27.6554 33.3641 27.1207 32.4124 26.1691C31.4608 25.2174 30.9261 23.9267 30.9261 22.5809C30.9261 21.235 31.4608 19.9443 32.4124 18.9926C33.3641 18.041 34.6548 17.5063 36.0007 17.5063H50.4441C51.1106 17.5062 51.7706 17.6373 52.3864 17.8922C53.0023 18.1471 53.5618 18.5209 54.0332 18.9921C54.5046 19.4634 54.8785 20.0228 55.1336 20.6386C55.3887 21.2544 55.52 21.9143 55.52 22.5809Z" fill="#D5035E"/>
<path d="M41.3605 59.6023L41.4937 62.6887C41.4937 64.5094 41.0348 65.96 40.1171 67.0406H54.6161V72.3917H31.1024V67.0406H33.1451C34.2109 66.7741 34.7438 65.4493 34.7438 63.0661L34.6328 59.6023H31.0358V54.3623H34.4551L34.2997 49.322C34.2997 46.3319 35.2101 43.971 37.0308 42.2391C38.8663 40.5072 41.3161 39.6412 44.3802 39.6412C47.5183 39.6412 49.9829 40.4776 51.774 42.1503C53.5651 43.8081 54.4607 46.0581 54.4607 48.9002H48.0882C48.0882 47.642 47.7625 46.6798 47.1112 46.0137C46.4747 45.3476 45.557 45.0145 44.358 45.0145C43.381 45.0145 42.5669 45.3772 41.9156 46.1025C41.2791 46.8278 40.9608 47.901 40.9608 49.322L41.1606 54.3623H48.0216V59.6023H41.3605Z" fill="white"/>
</svg>
